# xmcd
#
# Track frame offsets: 
#        150
#        13363
#        25051
#        37473
#        47733
#        59379
#        70517
#        83436
#        95219
#        107320
#        121244
#        132892
#        147293
#        161976
#        174599
#        188380
#        200292
#        211544
#        223629
#        235418
#        247587
#        260273
#        273887
#        285178
#
# Disc length: 3962 seconds
#
# Revision: 2
# Processed by: cddbd v1.5.2PL0 Copyright (c) Steve Scherf et al.
# Submitted via: ExactAudioCopy v1.0b6
#
DISCID=470f7818
DTITLE=Johnny Otis and Friends - Good Ole Blues
DYEAR=2004
DGENRE=Rhythm and Blues
TTITLE0=Johnny Otis with Little Esther - I Gotta Guy (1949)
TTITLE1=Johnny Otis with Little Esther - Mean Ole Gal (1949)
TTITLE2=Johnny Otis - Thursday Night Blues (1949)
TTITLE3=Johnny Otis - Good Ole Blues (1949)
TTITLE4=Johnny Otis - Boogie Guitar (Three Guitars) (1949)
TTITLE5=Johnny Otis - Ain't Nothing Shakin' (1949)
TTITLE6=Johnny Otis - Hangover Blues (1949)
TTITLE7=Johnny Otis with Little Esther - Get Together Blues (1949)
TTITLE8=Johnny Otis - I'm Not Falling in Love with You (1949)
TTITLE9=Johnny Otis with The Robins - If It's So, Baby (1949)
TTITLE10=Johnny Otis with The Robins - Our Romance is Gone (1949)
TTITLE11=Johnny Otis with The Robins - If I Didn't Love You So (1949)
TTITLE12=Johnny Otis with The Robins - Rain in My Eyes (1949)
TTITLE13=Johnny Otis with Little Esther and The Robins - Double Crossi
TTITLE13=ng Blues (1949)
TTITLE14=Johnny Otis - Head Hunter (1949)
TTITLE15=Johnny Otis - Going to See My Baby (1949)
TTITLE16=Johnny Otis - The Little Red Hen (1949)
TTITLE17=Johnny Otis - New Orleans Shuffle (1949)
TTITLE18=Johnny Otis - The Turkey Hop - Part 1 (1950)
TTITLE19=Johnny Otis - The Turkey Hop - Part 2 (1950)
TTITLE20=Johnny Otis - Blues Nocturne (1950)
TTITLE21=Johnny Otis - Cry Baby (1950)
TTITLE22=Johnny Otis with Little Esther and The Robins - Lover's Lane 
TTITLE22=Boogie (1950)
TTITLE23=Johnny Otis with The Robins - I Found My Troubles (1950)
EXTD=
EXTT0=
EXTT1=
EXTT2=
EXTT3=
EXTT4=
EXTT5=
EXTT6=
EXTT7=
EXTT8=
EXTT9=
EXTT10=
EXTT11=
EXTT12=
EXTT13=
EXTT14=
EXTT15=
EXTT16=
EXTT17=
EXTT18=
EXTT19=
EXTT20=
EXTT21=
EXTT22=
EXTT23=
PLAYORDER=
